# Blender v2.76 (sub 0) OBJ File: ''
# www.blender.org
mtllib cone.mtl
o Cone_Cone.001
v 0.000000 -1.000000 -1.000000
v 0.000000 1.000000 0.000000
v 0.382683 -1.000000 -0.923880
v 0.707107 -1.000000 -0.707107
v 0.923880 -1.000000 -0.382683
v 1.000000 -1.000000 0.000000
v 0.923880 -1.000000 0.382684
v 0.707107 -1.000000 0.707107
v 0.382683 -1.000000 0.923880
v 0.000000 -1.000000 1.000000
v -0.382683 -1.000000 0.923880
v -0.707107 -1.000000 0.707107
v -0.923880 -1.000000 0.382684
v -1.000000 -1.000000 -0.000000
v -0.923879 -1.000000 -0.382684
v -0.707107 -1.000000 -0.707107
v -0.382683 -1.000000 -0.923880
vn -0.498800 0.440300 -0.746500
vn 0.175200 0.440300 -0.880600
vn -0.746500 0.440300 -0.498800
vn -0.880600 0.440300 -0.175200
vn -0.880600 0.440300 0.175200
vn -0.746500 0.440300 0.498800
vn -0.498800 0.440300 0.746500
vn -0.175200 0.440300 0.880600
vn 0.175200 0.440300 0.880600
vn 0.498800 0.440300 0.746500
vn 0.746500 0.440300 0.498800
vn 0.880600 0.440300 0.175200
vn 0.880600 0.440300 -0.175200
vn 0.746500 0.440300 -0.498800
vn -0.175200 0.440300 -0.880600
vn 0.498800 0.440300 -0.746500
vn 0.000000 -1.000000 0.000000
usemtl None
s off
f 16//1 2//1 17//1
f 1//2 2//2 3//2
f 15//3 2//3 16//3
f 14//4 2//4 15//4
f 13//5 2//5 14//5
f 12//6 2//6 13//6
f 11//7 2//7 12//7
f 10//8 2//8 11//8
f 9//9 2//9 10//9
f 8//10 2//10 9//10
f 7//11 2//11 8//11
f 6//12 2//12 7//12
f 5//13 2//13 6//13
f 4//14 2//14 5//14
f 17//15 2//15 1//15
f 3//16 2//16 4//16
f 9//17 13//17 5//17
f 17//17 1//17 3//17
f 3//17 4//17 17//17
f 5//17 6//17 7//17
f 7//17 8//17 5//17
f 9//17 10//17 13//17
f 11//17 12//17 13//17
f 13//17 14//17 15//17
f 15//17 16//17 17//17
f 17//17 4//17 5//17
f 5//17 8//17 9//17
f 10//17 11//17 13//17
f 13//17 15//17 17//17
f 17//17 5//17 13//17
